<?xml version="1.0" encoding="UTF-8"?>
<mxfile host="app.diagrams.net">
  <diagram name="ER Diagram">
    <mxGraphModel dx="1235" dy="813" grid="1" gridSize="10" guides="1" tooltips="1" connect="1" arrows="1" fold="1" page="1" pageScale="1" pageWidth="827" pageHeight="1169" math="0" shadow="0">
      <root>
        <mxCell id="0" />
        <mxCell id="1" parent="0" />

        <!-- User Entity -->
        <mxCell id="2" value="User" style="rounded=1;whiteSpace=wrap;html=1;" vertex="1" parent="1">
          <mxGeometry x="100" y="100" width="140" height="140" as="geometry" />
        </mxCell>
        <mxCell id="3" value="user_id (PK)" style="text;whiteSpace=wrap;html=1;" vertex="1" parent="2">
          <mxGeometry x="0" y="0" width="140" height="30" as="geometry" />
        </mxCell>
        <mxCell id="4" value="name" style="text;whiteSpace=wrap;html=1;" vertex="1" parent="2">
          <mxGeometry x="0" y="30" width="140" height="30" as="geometry" />
        </mxCell>
        <mxCell id="5" value="email" style="text;whiteSpace=wrap;html=1;" vertex="1" parent="2">
          <mxGeometry x="0" y="60" width="140" height="30" as="geometry" />
        </mxCell>
        <mxCell id="6" value="phone" style="text;whiteSpace=wrap;html=1;" vertex="1" parent="2">
          <mxGeometry x="0" y="90" width="140" height="30" as="geometry" />
        </mxCell>

        <!-- Role Entity -->
        <mxCell id="7" value="Role" style="rounded=1;whiteSpace=wrap;html=1;" vertex="1" parent="1">
          <mxGeometry x="300" y="100" width="140" height="90" as="geometry" />
        </mxCell>
        <mxCell id="8" value="role_id (PK)" style="text;whiteSpace=wrap;html=1;" vertex="1" parent="7">
          <mxGeometry x="0" y="0" width="140" height="30" as="geometry" />
        </mxCell>
        <mxCell id="9" value="role_name" style="text;whiteSpace=wrap;html=1;" vertex="1" parent="7">
          <mxGeometry x="0" y="30" width="140" height="30" as="geometry" />
        </mxCell>
        <mxCell id="10" value="permissions" style="text;whiteSpace=wrap;html=1;" vertex="1" parent="7">
          <mxGeometry x="0" y="60" width="140" height="30" as="geometry" />
        </mxCell>

        <!-- Vehicle Entity -->
        <mxCell id="11" value="Vehicle" style="rounded=1;whiteSpace=wrap;html=1;" vertex="1" parent="1">
          <mxGeometry x="100" y="300" width="140" height="120" as="geometry" />
        </mxCell>
        <mxCell id="12" value="vehicle_id (PK)" style="text;whiteSpace=wrap;html=1;" vertex="1" parent="11">
          <mxGeometry x="0" y="0" width="140" height="30" as="geometry" />
        </mxCell>
        <mxCell id="13" value="vehicle_model" style="text;whiteSpace=wrap;html=1;" vertex="1" parent="11">
          <mxGeometry x="0" y="30" width="140" height="30" as="geometry" />
        </mxCell>
        <mxCell id="14" value="license_plate" style="text;whiteSpace=wrap;html=1;" vertex="1" parent="11">
          <mxGeometry x="0" y="60" width="140" height="30" as="geometry" />
        </mxCell>
        <mxCell id="15" value="capacity" style="text;whiteSpace=wrap;html=1;" vertex="1" parent="11">
          <mxGeometry x="0" y="90" width="140" height="30" as="geometry" />
        </mxCell>

        <!-- Trip Entity -->
        <mxCell id="16" value="Trip" style="rounded=1;whiteSpace=wrap;html=1;" vertex="1" parent="1">
          <mxGeometry x="300" y="300" width="140" height="150" as="geometry" />
        </mxCell>
        <mxCell id="17" value="trip_id (PK)" style="text;whiteSpace=wrap;html=1;" vertex="1" parent="16">
          <mxGeometry x="0" y="0" width="140" height="30" as="geometry" />
        </mxCell>
        <mxCell id="18" value="start_location" style="text;whiteSpace=wrap;html=1;" vertex="1" parent="16">
          <mxGeometry x="0" y="30" width="140" height="30" as="geometry" />
        </mxCell>
        <mxCell id="19" value="end_location" style="text;whiteSpace=wrap;html=1;" vertex="1" parent="16">
          <mxGeometry x="0" y="60" width="140" height="30" as="geometry" />
        </mxCell>
        <mxCell id="20" value="trip_status" style="text;whiteSpace=wrap;html=1;" vertex="1" parent="16">
          <mxGeometry x="0" y="90" width="140" height="30" as="geometry" />
        </mxCell>
        <mxCell id="21" value="trip_time" style="text;whiteSpace=wrap;html=1;" vertex="1" parent="16">
          <mxGeometry x="0" y="120" width="140" height="30" as="geometry" />
        </mxCell>

        <!-- Bank Account Entity -->
        <mxCell id="22" value="Bank Account" style="rounded=1;whiteSpace=wrap;html=1;" vertex="1" parent="1">
          <mxGeometry x="500" y="100" width="140" height="90" as="geometry" />
        </mxCell>
        <mxCell id="23" value="account_id (PK)" style="text;whiteSpace=wrap;html=1;" vertex="1" parent="22">
          <mxGeometry x="0" y="0" width="140" height="30" as="geometry" />
        </mxCell>
        <mxCell id="24" value="balance" style="text;whiteSpace=wrap;html=1;" vertex="1" parent="22">
          <mxGeometry x="0" y="30" width="140" height="30" as="geometry" />
        </mxCell>
        <mxCell id="25" value="account_type" style="text;whiteSpace=wrap;html=1;" vertex="1" parent="22">
          <mxGeometry x="0" y="60" width="140" height="30" as="geometry" />
        </mxCell>

        <!-- Call Center Request Entity -->
        <mxCell id="26" value="Call Center Request" style="rounded=1;whiteSpace=wrap;html=1;" vertex="1" parent="1">
          <mxGeometry x="500" y="300" width="160" height="90" as="geometry" />
        </mxCell>
        <mxCell id="27" value="request_id (PK)" style="text;whiteSpace=wrap;html=1;" vertex="1" parent="26">
          <mxGeometry x="0" y="0" width="160" height="30" as="geometry" />
        </mxCell>
        <mxCell id="28" value="request_type" style="text;whiteSpace=wrap;html=1;" vertex="1" parent="26">
          <mxGeometry x="0" y="30" width="160" height="30" as="geometry" />
        </mxCell>
        <mxCell id="29" value="request_status" style="text;whiteSpace=wrap;html=1;" vertex="1" parent="26">
          <mxGeometry x="0" y="60" width="160" height="30" as="geometry" />
        </mxCell>

        <!-- Relationships -->
        <mxCell id="30" value="has_role" style="edgeStyle=orthogonalEdgeStyle;rounded=0;orthogonalLoop=1;jettySize=auto;" edge="1" parent="1" source="2" target="7">
          <mxGeometry relative="1" as="geometry" />
        </mxCell>
        <mxCell id="31" value="drives" style="edgeStyle=orthogonalEdgeStyle;rounded=0;orthogonalLoop=1;jettySize=auto;" edge="1" parent="1" source="2" target="11">
          <mxGeometry relative="1" as="geometry" />
        </mxCell>
        <mxCell id="32" value="booked_trip" style="edgeStyle=orthogonalEdgeStyle;rounded=0;orthogonalLoop=1;jettySize=auto;" edge="1" parent="1" source="2" target="16">
          <mxGeometry relative="1" as="geometry" />
        </mxCell>
        <mxCell id="33" value="pays_through" style="edgeStyle=orthogonalEdgeStyle;rounded=0;orthogonalLoop=1;jettySize=auto;" edge="1" parent="1" source="2" target="22">
          <mxGeometry relative="1" as="geometry" />
        </mxCell>
        <mxCell id="34" value="requests" style="edgeStyle=orthogonalEdgeStyle;rounded=0;orthogonalLoop=1;jettySize=auto;" edge="1" parent="1" source="2" target="26">
          <mxGeometry relative="1" as="geometry" />
        </mxCell>

      </root>
    </mxGraphModel>
  </diagram>
</mxfile>
